<svg width="348" height="75" viewBox="0 0 348 75" fill="none" xmlns="http://www.w3.org/2000/svg">
<g clip-path="url(#clip0)">
<path fill-rule="evenodd" clip-rule="evenodd" d="M0 37.7191C0 30.6357 1.30208 23.956 3.90629 17.6798C6.51049 11.4037 10.2605 5.84382 15.1564 1H25.0002C14.7918 11.1043 9.68759 23.3439 9.68759 37.7191C9.68759 52.0943 14.7918 64.3339 25.0002 74.4382H15.1564C10.2605 69.5944 6.51049 64.0345 3.90629 57.7584C1.30208 51.4822 0 44.8025 0 37.7191ZM88 37.7191C88 44.8025 86.6979 51.4822 84.0937 57.7584C81.4895 64.0345 77.7395 69.5944 72.8436 74.4382H62.9997C73.2082 64.3339 78.3124 52.0943 78.3124 37.7191C78.3124 23.3439 73.2082 11.1043 62.9997 1H72.8436C77.7395 5.84382 81.4895 11.4037 84.0937 17.6798C86.6979 23.956 88 30.6357 88 37.7191Z" fill="black"/>
<path d="M42.6438 5.81787H36.1333V43.2531H42.6438V5.81787Z" fill="black"/>
<path d="M64.8909 12.4456L69.1108 16.6655L42.6401 43.1363L38.4201 38.9163L64.8909 12.4456Z" fill="black"/>
<path d="M126.314 29.916C126.314 25.0332 127.447 21.1172 129.713 18.168C131.979 15.1992 135.016 13.7148 138.824 13.7148C142.184 13.7148 144.898 14.8867 146.969 17.2305V1H154.088V46H147.643L147.291 42.7188C145.162 45.2969 142.32 46.5859 138.766 46.5859C135.055 46.5859 132.047 45.0918 129.742 42.1035C127.457 39.1152 126.314 35.0527 126.314 29.916ZM133.434 30.5312C133.434 33.7539 134.049 36.2734 135.279 38.0898C136.529 39.8867 138.297 40.7852 140.582 40.7852C143.492 40.7852 145.621 39.4863 146.969 36.8887V23.3535C145.66 20.8145 143.551 19.5449 140.641 19.5449C138.336 19.5449 136.559 20.4629 135.309 22.2988C134.059 24.1152 133.434 26.8594 133.434 30.5312ZM180.455 46C180.143 45.3945 179.869 44.4082 179.635 43.041C177.369 45.4043 174.596 46.5859 171.314 46.5859C168.131 46.5859 165.533 45.6777 163.521 43.8613C161.51 42.0449 160.504 39.7988 160.504 37.123C160.504 33.7441 161.754 31.1562 164.254 29.3594C166.773 27.543 170.367 26.6348 175.035 26.6348H179.4V24.5547C179.4 22.9141 178.941 21.6055 178.023 20.6289C177.105 19.6328 175.709 19.1348 173.834 19.1348C172.213 19.1348 170.885 19.5449 169.85 20.3652C168.814 21.166 168.297 22.1914 168.297 23.4414H161.178C161.178 21.7031 161.754 20.082 162.906 18.5781C164.059 17.0547 165.621 15.8633 167.594 15.0039C169.586 14.1445 171.803 13.7148 174.244 13.7148C177.955 13.7148 180.914 14.6523 183.121 16.5273C185.328 18.3828 186.461 21 186.52 24.3789V38.6758C186.52 41.5273 186.92 43.8027 187.721 45.502V46H180.455ZM172.633 40.873C174.039 40.873 175.357 40.5312 176.588 39.8477C177.838 39.1641 178.775 38.2461 179.4 37.0938V31.1172H175.562C172.926 31.1172 170.943 31.5762 169.615 32.4941C168.287 33.4121 167.623 34.7109 167.623 36.3906C167.623 37.7578 168.072 38.8516 168.971 39.6719C169.889 40.4727 171.109 40.873 172.633 40.873ZM202.896 6.5957V14.3008H208.492V19.5742H202.896V37.2695C202.896 38.4805 203.131 39.3594 203.6 39.9062C204.088 40.4336 204.947 40.6973 206.178 40.6973C206.998 40.6973 207.828 40.5996 208.668 40.4043V45.9121C207.047 46.3613 205.484 46.5859 203.98 46.5859C198.512 46.5859 195.777 43.5684 195.777 37.5332V19.5742H190.562V14.3008H195.777V6.5957H202.896ZM227.916 46.5859C223.404 46.5859 219.742 45.1699 216.93 42.3379C214.137 39.4863 212.74 35.6973 212.74 30.9707V30.0918C212.74 26.9277 213.346 24.1055 214.557 21.625C215.787 19.125 217.506 17.1816 219.713 15.7949C221.92 14.4082 224.381 13.7148 227.096 13.7148C231.412 13.7148 234.742 15.0918 237.086 17.8457C239.449 20.5996 240.631 24.4961 240.631 29.5352V32.4062H219.918C220.133 35.0234 221.002 37.0938 222.525 38.6172C224.068 40.1406 226.002 40.9023 228.326 40.9023C231.588 40.9023 234.244 39.584 236.295 36.9473L240.133 40.6094C238.863 42.5039 237.164 43.9785 235.035 45.0332C232.926 46.0684 230.553 46.5859 227.916 46.5859ZM227.066 19.4277C225.113 19.4277 223.531 20.1113 222.32 21.4785C221.129 22.8457 220.367 24.75 220.035 27.1914H233.6V26.6641C233.443 24.2812 232.809 22.4844 231.695 21.2734C230.582 20.043 229.039 19.4277 227.066 19.4277ZM259.996 30.7363H244.615V24.9941H259.996V30.7363ZM268.375 46V19.5742H263.541V14.3008H268.375V11.4004C268.375 7.88477 269.352 5.16992 271.305 3.25586C273.258 1.3418 275.992 0.384766 279.508 0.384766C280.758 0.384766 282.086 0.560547 283.492 0.912109L283.316 6.47852C282.535 6.32227 281.627 6.24414 280.592 6.24414C277.193 6.24414 275.494 7.99219 275.494 11.4883V14.3008H281.939V19.5742H275.494V46H268.375ZM293.746 14.3008L293.951 17.9629C296.295 15.1309 299.371 13.7148 303.18 13.7148C309.781 13.7148 313.141 17.4941 313.258 25.0527V46H306.139V25.4629C306.139 23.4512 305.699 21.9668 304.82 21.0098C303.961 20.0332 302.545 19.5449 300.572 19.5449C297.701 19.5449 295.562 20.8438 294.156 23.4414V46H287.037V14.3008H293.746ZM338.307 37.3867C338.307 36.1172 337.779 35.1504 336.725 34.4863C335.689 33.8223 333.961 33.2363 331.539 32.7285C329.117 32.2207 327.096 31.5762 325.475 30.7949C321.92 29.0762 320.143 26.5859 320.143 23.3242C320.143 20.5898 321.295 18.3047 323.6 16.4688C325.904 14.6328 328.834 13.7148 332.389 13.7148C336.178 13.7148 339.234 14.6523 341.559 16.5273C343.902 18.4023 345.074 20.834 345.074 23.8223H337.955C337.955 22.4551 337.447 21.3223 336.432 20.4238C335.416 19.5059 334.068 19.0469 332.389 19.0469C330.826 19.0469 329.547 19.4082 328.551 20.1309C327.574 20.8535 327.086 21.8203 327.086 23.0312C327.086 24.125 327.545 24.9746 328.463 25.5801C329.381 26.1855 331.236 26.8008 334.029 27.4258C336.822 28.0312 339.01 28.7637 340.592 29.623C342.193 30.4629 343.375 31.4785 344.137 32.6699C344.918 33.8613 345.309 35.3066 345.309 37.0059C345.309 39.8574 344.127 42.1719 341.764 43.9492C339.4 45.707 336.305 46.5859 332.477 46.5859C329.879 46.5859 327.564 46.1172 325.533 45.1797C323.502 44.2422 321.92 42.9531 320.787 41.3125C319.654 39.6719 319.088 37.9043 319.088 36.0098H326.002C326.1 37.6895 326.734 38.9883 327.906 39.9062C329.078 40.8047 330.631 41.2539 332.564 41.2539C334.439 41.2539 335.865 40.9023 336.842 40.1992C337.818 39.4766 338.307 38.5391 338.307 37.3867Z" fill="black"/>
</g>
<defs>
<clipPath id="clip0">
<rect width="348" height="75" fill="white"/>
</clipPath>
</defs>
</svg>
