<svg width="158" height="50" viewBox="0 0 158 50" fill="none" xmlns="http://www.w3.org/2000/svg">
<path fill-rule="evenodd" clip-rule="evenodd" d="M14.1001 0.799805V35.7998C14.1001 43.4998 7.8001 49.7998 0.100098 49.7998V42.7998C4.0001 42.7998 7.1001 39.6998 7.1001 35.7998V0.799805H14.1001ZM141.9 7.7998H157.7V0.799805H119.2V7.7998H134.9V49.7998H141.9V7.7998ZM98.1001 0.799805V35.7998C98.1001 39.6998 95.0001 42.7998 91.1001 42.7998C87.2001 42.7998 84.1001 39.6998 84.1001 35.7998V14.7998C84.1001 7.0998 77.8001 0.799805 70.1001 0.799805C62.4001 0.799805 56.1001 7.0998 56.1001 14.7998V35.7998C56.1001 39.6998 53.0001 42.7998 49.1001 42.7998C45.2001 42.7998 42.1001 39.6998 42.1001 35.7998V0.799805H35.1001V35.7998C35.1001 43.4998 41.4001 49.7998 49.1001 49.7998C56.8001 49.7998 63.1001 43.4998 63.1001 35.7998V14.7998C63.1001 10.8998 66.2001 7.7998 70.1001 7.7998C74.0001 7.7998 77.1001 10.8998 77.1001 14.7998V35.7998C77.1001 43.4998 83.4001 49.7998 91.1001 49.7998C98.8001 49.7998 105.1 43.4998 105.1 35.7998V0.799805H98.1001Z" fill="black"/>
</svg>
