<svg width="1728" height="718" viewBox="0 0 1728 718" fill="none" xmlns="http://www.w3.org/2000/svg">
<path d="M819.791 162.303C696.191 -87.0302 1.53906 162.303 1.53906 162.303L1.53906 628.076C871.036 306.887 881.226 654.085 881.226 654.085C977.249 396.851 1570.82 494.792 1726.9 587.401L1553.84 141.046C1015.97 -188.266 819.791 162.303 819.791 162.303Z" fill="#FFC426"/>
<path d="M960.704 393.919C960.704 393.919 1139.54 177.708 1560 342" stroke="#202020"/>
<path d="M967.95 446.455C967.95 446.455 1154.1 223.993 1590.92 392.351" stroke="#202020"/>
<path d="M975.049 497.195C975.049 497.195 1161.2 274.734 1598.02 443.091" stroke="#202020"/>
<path d="M86.9558 189.191C86.9558 189.191 554.226 21.2317 672.764 130.425" stroke="#202020"/>
<path d="M87.7982 343.329C87.7982 343.329 580.577 171.486 706.135 279.702" stroke="#202020"/>
<path d="M97.0742 390.59C97.0742 390.59 198.587 346.331 273.03 346.331" stroke="#202020"/>
<path d="M86.3425 286.274C86.3425 286.274 572.865 118.104 696.003 227.25" stroke="#202020"/>
<path d="M86.84 225.232C86.84 225.232 564.913 65.0862 683.926 176.244" stroke="#202020"/>
<path d="M894.173 178.768C894.173 178.768 1124.62 -50.913 1529.16 183.498" stroke="#202020"/>
<path d="M927.228 278.439C927.228 278.439 1149.46 43.4021 1552.59 273.144" stroke="#202020"/>
<path d="M910.521 228.488C910.521 228.488 1131.8 -6.29222 1533.12 223.881" stroke="#202020"/>
<path d="M87.3589 440.246C87.3589 440.246 638.924 283.632 711.302 372.589" stroke="#202020"/>
<path d="M95.9951 481.266C95.9951 481.266 651.377 324.653 724.256 413.609" stroke="#202020"/>
<path d="M93.8359 528.764C93.8359 528.764 659.715 370.371 733.971 460.338" stroke="#202020"/>
<path d="M878.72 665.952C878.72 665.952 1010.32 354.475 1726.9 603.656" stroke="#FFC426" stroke-width="2"/>
<path d="M879.66 668.773C879.66 668.773 1022.64 380.683 1726.9 625.217" stroke="#FFC426" stroke-width="2"/>
<path d="M880.601 671.594C880.601 671.594 1081.32 399.866 1726.9 651.512" stroke="#FFC426" stroke-width="2"/>
<path d="M878.622 637.058C878.622 637.058 778.944 355.726 1 653.984" stroke="#FFC426" stroke-width="2"/>
<path d="M880.781 665.702C880.781 665.702 781.367 419.165 1 716.594" stroke="#FFC426" stroke-width="2"/>
<path d="M880.781 645.338C880.781 645.338 784.951 399.224 1 677.733" stroke="#FFC426" stroke-width="2"/>
<path d="M953.211 321.059C953.211 321.059 1052.84 235.092 1170.03 227.682" stroke="#202020"/>
</svg>
