<svg width="32" height="32" viewBox="0 0 32 32" fill="none" xmlns="http://www.w3.org/2000/svg">
<path d="M4 32C2.89543 32 2 31.1046 2 30L2 16.3137H30.2353V30C30.2353 31.1046 29.3399 32 28.2353 32H4Z" fill="#CDC8FF"/>
<path d="M2 15.6863L2 2C2 0.895433 2.89543 3.8147e-06 4 3.8147e-06H28.2353C29.3399 3.8147e-06 30.2353 0.895434 30.2353 2V15.6863H2Z" fill="#A091FF"/>
<path d="M8.81166 26.9804C8.60251 26.9804 8.41427 26.9072 8.24695 26.7608C8.10055 26.5935 8.02734 26.4053 8.02734 26.1961V5.80397C8.02734 5.5739 8.10055 5.38567 8.24695 5.23926C8.41427 5.09286 8.60251 5.01965 8.81166 5.01965H17.596C20.2731 5.01965 22.3751 5.63665 23.9019 6.87063C25.4496 8.10462 26.2234 9.90331 26.2234 12.2667C26.2234 14.6092 25.46 16.3765 23.9332 17.5687C22.4064 18.7399 20.294 19.3255 17.596 19.3255H13.8626V26.1961C13.8626 26.4262 13.779 26.6144 13.6117 26.7608C13.4653 26.9072 13.277 26.9804 13.047 26.9804H8.81166ZM17.4391 14.9961C18.3594 14.9961 19.0809 14.7661 19.6038 14.3059C20.1267 13.8249 20.3881 13.1242 20.3881 12.204C20.3881 11.3465 20.1371 10.6667 19.6352 10.1648C19.1541 9.64188 18.4221 9.38044 17.4391 9.38044H13.7685V14.9961H17.4391Z" fill="#140564"/>
</svg>
